<svg width="24" height="24" viewBox="0 0 24 24" fill="none" xmlns="http://www.w3.org/2000/svg">
<path d="M10.441 3.20433C10.8507 3.41614 11.0069 3.91961 10.7951 4.32933L7.96181 9.77725H16.0382L13.2049 4.32933C12.9931 3.91961 13.1528 3.41614 13.559 3.20433C13.9653 2.99253 14.4688 3.15225 14.684 3.5585L17.9167 9.77725H20.8889C21.5035 9.77725 22 10.2738 22 10.8884C22 11.5029 21.5035 11.9995 20.8889 11.9995L19.0868 19.2043C18.8403 20.1939 17.9514 20.8884 16.9306 20.8884H7.06944C6.04861 20.8884 5.15972 20.1939 4.91319 19.2043L3.11111 11.9995C2.49653 11.9995 2 11.5029 2 10.8884C2 10.2738 2.49653 9.77725 3.11111 9.77725H6.08333L9.31597 3.5585C9.52778 3.14878 10.0313 2.99253 10.441 3.20433ZM7 13.3884C7.46181 13.3884 7.83333 13.0168 7.83333 12.555C7.83333 12.0932 7.46181 11.7217 7 11.7217C6.53819 11.7217 6.16667 12.0932 6.16667 12.555C6.16667 13.0168 6.53819 13.3884 7 13.3884ZM17.8333 12.555C17.8333 12.0932 17.4618 11.7217 17 11.7217C16.5382 11.7217 16.1667 12.0932 16.1667 12.555C16.1667 13.0168 16.5382 13.3884 17 13.3884C17.4618 13.3884 17.8333 13.0168 17.8333 12.555Z" fill="#919EAB"/>
</svg>
