<svg width="20" height="20" viewBox="0 0 20 20" fill="none" xmlns="http://www.w3.org/2000/svg">
<path d="M1.66669 3.20312C1.66669 2.81348 1.97894 2.5 2.36707 2.5H3.69488C4.3369 2.5 4.90596 2.875 5.17152 3.4375H17.1656C17.9331 3.4375 18.4934 4.16992 18.292 4.91406L17.0956 9.37598C16.8475 10.2959 16.0158 10.9375 15.0674 10.9375H6.64817L6.80575 11.7725C6.86996 12.1035 7.15886 12.3438 7.49446 12.3438H15.9078C16.296 12.3438 16.6082 12.6572 16.6082 13.0469C16.6082 13.4365 16.296 13.75 15.9078 13.75H7.49446C6.48474 13.75 5.61802 13.0293 5.43125 12.0361L3.92542 4.09668C3.905 3.98535 3.80869 3.90625 3.69488 3.90625H2.36707C1.97894 3.90625 1.66669 3.59277 1.66669 3.20312ZM5.40207 16.0938C5.40207 15.9091 5.4383 15.7262 5.50869 15.5556C5.57909 15.385 5.68227 15.23 5.81234 15.0994C5.94242 14.9688 6.09684 14.8652 6.26678 14.7945C6.43673 14.7239 6.61888 14.6875 6.80283 14.6875C6.98679 14.6875 7.16894 14.7239 7.33889 14.7945C7.50883 14.8652 7.66325 14.9688 7.79333 15.0994C7.9234 15.23 8.02658 15.385 8.09698 15.5556C8.16737 15.7262 8.2036 15.9091 8.2036 16.0938C8.2036 16.2784 8.16737 16.4613 8.09698 16.6319C8.02658 16.8025 7.9234 16.9575 7.79333 17.0881C7.66325 17.2187 7.50883 17.3223 7.33889 17.393C7.16894 17.4636 6.98679 17.5 6.80283 17.5C6.61888 17.5 6.43673 17.4636 6.26678 17.393C6.09684 17.3223 5.94242 17.2187 5.81234 17.0881C5.68227 16.9575 5.57909 16.8025 5.50869 16.6319C5.4383 16.4613 5.40207 16.2784 5.40207 16.0938ZM15.2074 14.6875C15.5789 14.6875 15.9352 14.8357 16.1979 15.0994C16.4606 15.3631 16.6082 15.7208 16.6082 16.0938C16.6082 16.4667 16.4606 16.8244 16.1979 17.0881C15.9352 17.3518 15.5789 17.5 15.2074 17.5C14.8359 17.5 14.4796 17.3518 14.2169 17.0881C13.9543 16.8244 13.8067 16.4667 13.8067 16.0938C13.8067 15.7208 13.9543 15.3631 14.2169 15.0994C14.4796 14.8357 14.8359 14.6875 15.2074 14.6875ZM9.02072 7.1875C9.02072 7.50977 9.28336 7.77344 9.60437 7.77344H10.8884V9.0625C10.8884 9.38477 11.1511 9.64844 11.4721 9.64844C11.7931 9.64844 12.0557 9.38477 12.0557 9.0625V7.77344H13.3398C13.6608 7.77344 13.9234 7.50977 13.9234 7.1875C13.9234 6.86523 13.6608 6.60156 13.3398 6.60156H12.0557V5.3125C12.0557 4.99023 11.7931 4.72656 11.4721 4.72656C11.1511 4.72656 10.8884 4.99023 10.8884 5.3125V6.60156H9.60437C9.28336 6.60156 9.02072 6.86523 9.02072 7.1875Z" fill="white"/>
</svg>
