<svg width="20" height="20" viewBox="0 0 20 20" fill="none" xmlns="http://www.w3.org/2000/svg">
<path d="M3.21611 11.1975L9.09827 16.3347C9.34241 16.5479 9.66467 16.6667 9.99996 16.6667C10.3352 16.6667 10.6575 16.5479 10.9017 16.3347L16.7838 11.1975C17.7734 10.3357 18.3333 9.12677 18.3333 7.86302V7.6864C18.3333 5.55781 16.6894 3.74288 14.4466 3.39268C12.9622 3.16125 11.4518 3.61498 10.3906 4.60771L9.99996 4.97314L9.60933 4.60771C8.54814 3.61498 7.03772 3.16125 5.55334 3.39268C3.31051 3.74288 1.66663 5.55781 1.66663 7.6864V7.86302C1.66663 9.12677 2.22652 10.3357 3.21611 11.1975Z" fill="#637381"/>
</svg>
