<svg width="20" height="20" viewBox="0 0 20 20" fill="none" xmlns="http://www.w3.org/2000/svg">
<path d="M1.66663 8.91174C1.66663 8.44222 1.86139 7.99704 2.20918 7.68055L8.86986 2.61321C9.5098 2.02891 10.4871 2.02891 11.127 2.61321L17.7907 7.68054C18.1351 7.99703 18.3333 8.44221 18.3333 8.91173L16.6778 16.7104C16.3343 17.4524 15.9301 17.8234 15.0084 17.8234H4.98849C4.06684 17.8234 3.72096 17.8234 3.31908 16.7104L1.66663 8.91174ZM8.3273 12.6296V14.8555C8.3273 15.3181 8.69944 15.5975 9.16201 15.5975H10.8314C11.294 15.5975 11.6661 15.3181 11.6661 14.8555V12.6296C11.6661 12.1671 11.294 11.8877 10.8314 11.8877H9.16201C8.69944 11.8877 8.3273 12.1671 8.3273 12.6296Z" fill="#919EAB"/>
</svg>
