<svg width="24" height="24" viewBox="0 0 24 24" fill="none" xmlns="http://www.w3.org/2000/svg">
<path d="M13.4077 2C7.89428 2 3.42999 6.47768 3.42999 12C3.42999 17.5223 7.89428 22 13.4077 22C16.113 22 18.5639 20.9196 20.363 19.1696C20.5862 18.9509 20.6443 18.6116 20.5014 18.3348C20.3586 18.058 20.0505 17.9018 19.7425 17.9554C19.305 18.0312 18.8586 18.0714 18.3987 18.0714C14.0728 18.0714 10.5639 14.5536 10.5639 10.2143C10.5639 7.27679 12.1711 4.71875 14.5505 3.37054C14.8229 3.21429 14.9612 2.90179 14.8943 2.59821C14.8273 2.29464 14.5684 2.06696 14.2559 2.04018C13.9746 2.01786 13.6934 2.00446 13.4077 2.00446V2Z" fill="#919EAB"/>
</svg>
