<svg width="20" height="20" viewBox="0 0 20 20" fill="none" xmlns="http://www.w3.org/2000/svg">
<path d="M1.66675 4.79167C1.66675 4.21549 2.13224 3.75 2.70841 3.75H15.2084C15.7846 3.75 16.2501 4.21549 16.2501 4.79167C16.2501 5.36784 15.7846 5.83333 15.2084 5.83333H2.70841C2.13224 5.83333 1.66675 5.36784 1.66675 4.79167ZM3.75008 10C3.75008 9.42383 4.21558 8.95833 4.79175 8.95833H17.2917C17.8679 8.95833 18.3334 9.42383 18.3334 10C18.3334 10.5762 17.8679 11.0417 17.2917 11.0417H4.79175C4.21558 11.0417 3.75008 10.5762 3.75008 10ZM16.2501 15.2083C16.2501 15.7845 15.7846 16.25 15.2084 16.25H2.70841C2.13224 16.25 1.66675 15.7845 1.66675 15.2083C1.66675 14.6322 2.13224 14.1667 2.70841 14.1667H15.2084C15.7846 14.1667 16.2501 14.6322 16.2501 15.2083Z" fill="#919EAB"/>
</svg>
