<svg width="25" height="40" viewBox="0 0 25 40" fill="none" xmlns="http://www.w3.org/2000/svg">
<path d="M9.09596 34.7441C7.71314 36.226 5.25683 34.9476 5.67719 32.9648L8.54379 19.4433C8.74242 18.5064 9.57742 17.8418 10.535 17.8584L20.1302 18.0251C21.8621 18.0552 22.7395 20.1229 21.5578 21.3893L9.09596 34.7441Z" fill="#FFC831"/>
<path d="M11.1038 32.1485C9.75373 33.6819 5.67338 32.9828 6.03439 31.2799L8.58686 19.2402C8.75545 18.445 9.97319 17.8585 11.3787 17.8956L19.2437 18.1032C21.186 18.1544 22.3925 19.3268 21.5212 20.3164L11.1038 32.1485Z" fill="#FFC831"/>
<path d="M14.3425 6.34109C15.7441 4.83929 18.2279 6.17349 17.7496 8.17135L14.5794 21.4146C14.3608 22.3278 13.5364 22.9659 12.5976 22.9487L3.56239 22.7826C1.8314 22.7507 0.955756 20.6839 2.13705 19.4183L14.3425 6.34109Z" fill="#FFC831"/>
<path d="M12.2364 8.40824C13.4348 6.84796 17.0566 7.5594 16.7362 9.29211L14.4705 21.543C14.3209 22.3522 13.24 22.949 11.9924 22.9113L5.01122 22.7C3.28718 22.6479 2.21628 21.4549 2.98962 20.448L12.2364 8.40824Z" fill="#FFC831"/>
</svg>
